<svg width="1621" height="1595" viewBox="0 0 1621 1595" fill="none" xmlns="http://www.w3.org/2000/svg">
<path d="M1448.92 563.883C1445.26 574.525 1443.91 585.907 1440.05 596.475C1434.91 601.655 1429.07 606.762 1422.44 609.811C1415.54 606.584 1409.43 601.951 1402.85 598.177C1399.66 596.061 1395.9 594.447 1393.57 591.339C1392.41 585.522 1394.97 578.284 1390.24 573.696C1385.48 569.078 1380.22 565.022 1375.37 560.523C1375.37 553.433 1374.7 546.299 1375.59 539.254C1379.41 533.333 1385.69 529.515 1389.61 523.683C1390.41 515.054 1388.69 506.321 1387.99 497.692C1379.96 495.901 1372.01 493.799 1364.09 491.623C1357.96 489.936 1351.54 490.498 1345.28 490.38C1342.38 485.777 1338.84 481.351 1337.33 476.052C1336.37 463.59 1339.24 451.112 1338.54 438.694C1333.54 427.786 1326.78 417.706 1321.82 406.738C1318.1 396.866 1307.21 393.698 1299.71 387.467C1295.96 385.025 1295.96 380.125 1294.69 376.277C1290.41 361.964 1288.71 347.089 1286.74 332.347C1285.94 324.783 1280.11 319.352 1276.39 313.12C1271.38 304.92 1265.1 297.52 1260.47 289.112C1257.31 279.95 1256.47 270.107 1253.13 260.975C1247.59 256.89 1240.25 256.209 1234.12 253.145C1221.11 246.943 1208.72 239.469 1196.59 231.727C1193.4 235.043 1190.35 238.462 1187.1 241.688C1189.85 246.395 1194.28 249.784 1197.35 254.269C1191.83 259.849 1184.71 263.49 1179.31 269.174C1185.19 271.942 1191.7 272.741 1197.75 275.02C1211.21 282.687 1222.41 293.507 1233.14 304.549C1240.2 312.408 1251.16 314.481 1259.12 321.141C1252.95 325.848 1245.04 327.21 1238.55 331.324C1234.28 335.483 1234.12 342.499 1229.62 346.392C1224.14 346.037 1218.76 344.867 1213.43 343.654C1206.34 342.174 1200.3 337.985 1193.88 334.907C1189.2 332.42 1183.72 330.467 1180.92 325.656C1177.45 320.194 1174.29 314.525 1170.89 309.019C1167.37 303.335 1164.48 296.956 1159.12 292.708C1154.48 289.008 1150.09 284.923 1144.94 281.918C1125.94 272.208 1106.77 262.795 1087.8 252.996C1082.19 250.421 1078.83 245.063 1075.57 240.104C1072.36 235.116 1068.35 230.69 1065.59 225.436C1074.07 220.714 1081.93 214.009 1091.84 212.544C1102.67 210.783 1113.56 209.081 1124.27 206.55L1124.99 205.469C1124.34 199.371 1122.79 193.317 1120.54 187.604C1117.07 185.31 1112.93 184.392 1109.14 182.838C1107.01 182.719 1104.88 182.542 1102.79 182.349C1100.63 185.176 1099.62 189.276 1096.5 191.097C1089.08 191.911 1081.58 191.511 1074.15 191.186C1075.26 185.739 1077.02 180.44 1077.73 174.905C1072.25 172.137 1066.33 170.317 1060.95 167.401C1054.67 161.777 1052.04 152.688 1044.26 148.603C1019.55 133.669 995.954 117.032 972.079 100.825C968.541 97.672 964.264 100.707 960.963 102.557C954.85 105.71 952.837 113.554 946.31 116.056C940.863 118.143 935.327 120.304 929.54 121.088C924.389 119.711 919.993 116.337 914.724 115.316C909.262 114.206 903.786 113.259 898.309 112.326C889.932 110.861 881.495 112.578 873.102 112.755C868.499 113.036 863.585 112.637 859.411 114.975C853.15 118.054 847.896 123.649 840.584 124.152C830.164 125.44 819.892 128.8 809.294 127.926C802.175 127.349 795.174 125.957 788.143 124.892C779.913 123.589 772.394 119.874 764.491 117.447C763.085 112.03 762.167 106.494 760.406 101.166C749.645 101.24 738.885 99.197 728.154 100.293C722.485 102.543 719.643 108.981 714.093 111.453C702.237 113.022 690.1 111.971 678.378 114.517C669.453 116.352 660.661 118.75 651.75 120.571C650.966 126.477 652.742 132.96 650.699 138.51C644.364 143.276 637.304 148.19 629.074 148.471C622.103 149.004 615.131 149.581 608.219 150.617C600.966 151.372 596.097 157.426 590.754 161.703C591.909 166.987 593.226 172.227 594.558 177.466C588.978 181.181 583.191 185.266 576.278 185.784C564.985 186.85 553.751 188.448 542.59 190.446C540.488 197.343 538.994 204.433 538.609 211.656C538.047 215.371 538.52 219.427 536.848 222.89C532.497 226.62 527.02 228.81 522.979 232.925C508.385 247.43 495.286 263.505 479.138 276.367C474.638 279.875 470.464 284.315 464.722 285.647C459.334 287.038 453.828 287.793 448.337 288.444C452.422 279.386 459.616 272.133 463.789 263.149C463.626 258.59 461.865 254.283 460.104 250.139C453.281 250.242 446.457 250.539 439.634 250.272C433.447 242.353 428.163 233.798 422.672 225.391C421.562 223.496 419.549 220.906 421.562 218.878C429.436 209.494 437.873 200.569 447.716 193.198C452.319 188.876 459.083 189.823 464.723 188.062C467.298 186.034 468.394 182.704 470.007 179.951C472.627 174.371 476.224 169.279 478.621 163.596C479.613 154.7 474.847 145.982 475.972 137.102C485.134 132.247 495.006 128.828 504.124 123.811C509.394 120.762 515.773 119.178 520.169 114.856C520.85 104.762 521.96 94.563 521.235 84.454C514.87 77.32 507.544 70.097 497.908 67.788C504.791 63.999 512.546 62.37 519.814 59.47C545.716 49.598 571.959 40.554 598.808 33.553C613.979 29.808 628.825 24.746 644.351 22.511C669.04 16.99 694.024 13.038 719.216 10.626C736.533 9.17502 753.629 5.38602 771.035 5.29802C788.811 5.26902 806.632 5.74202 824.319 3.74402C846.476 6.24502 868.871 5.50502 891.013 8.22902C902.972 8.93902 914.887 10.405 926.61 12.936C946 16.089 965.448 19.005 984.749 22.705C995.065 23.919 1005.19 26.346 1015.05 29.617C1031.83 34.264 1048.44 39.519 1065.05 44.744C1075.97 48.252 1087.25 50.605 1097.96 54.75C1120.02 64.341 1142.22 73.636 1164.15 83.509C1191.63 98.991 1220.81 111.557 1246.78 129.6C1259.28 137.815 1271.79 146.044 1284.3 154.274C1297.34 163.85 1310.12 173.782 1323.13 183.417C1332.04 189.678 1340.41 196.679 1348.12 204.39C1356.21 212.575 1365.08 219.961 1373.25 228.087C1386.19 239.825 1397.61 253.042 1409.85 265.475C1413.26 268.376 1413.61 272.994 1414.95 276.975C1418.05 285.93 1422.57 294.381 1425.39 303.44C1425.99 314.052 1422.83 324.917 1425.94 335.351C1427.67 340.946 1429.01 346.718 1431.42 352.062C1437.53 357.716 1445.52 360.795 1452.26 365.635C1452.54 370.934 1452.24 376.233 1451.53 381.487C1447.23 383.026 1443.04 384.832 1438.73 386.312C1432.5 388.458 1425.75 386.075 1419.46 387.703C1413.66 389.672 1408.3 392.706 1402.93 395.577C1406.63 399.677 1412.22 400.935 1417.03 403.259C1423.81 406.471 1431.08 408.691 1437.43 412.776C1436.24 416.595 1435.02 420.399 1433.7 424.173C1423.06 424.543 1412.4 424.143 1401.82 425.224C1403.67 434.223 1404.61 443.518 1408.21 452.044C1410.96 458.956 1414.28 465.942 1413.88 473.58C1414.49 480.862 1412 489.106 1416.51 495.53C1424.05 507.593 1431.48 519.73 1437.33 532.725C1440.45 540.718 1449.45 543.722 1453.87 550.635C1454.73 555.683 1450.54 559.472 1448.92 563.883ZM1320.77 434.653C1321.05 429.621 1320.83 422.96 1315.69 420.4C1310.73 417.158 1305.39 414.583 1299.97 412.289C1284.4 405.688 1268.67 399.456 1253.35 392.322C1244.82 388.651 1240.4 379.711 1232.77 374.886C1228.66 375.611 1225 377.787 1221.24 379.445C1224.93 392.751 1234.89 402.772 1241.25 414.687C1245.56 426.247 1248.31 438.354 1251.82 450.18C1253.24 454.709 1257.68 457.166 1261.01 460.186C1265.77 463.724 1269.82 468.223 1274.97 471.213C1278.6 471.983 1282.36 471.701 1286.07 471.775C1283.67 459.579 1272.11 453.466 1264 445.369C1260.22 442.039 1261.27 436.429 1260.82 431.944C1281.35 436.488 1297.99 451.437 1318.89 454.856C1318.9 448.063 1319.33 441.284 1320.77 434.653ZM1615.58 765.165C1615.96 746.412 1613.91 727.718 1611.2 709.187C1610.03 691.781 1607.29 674.582 1603.92 657.486C1600.19 638.437 1597.46 619.121 1591.65 600.561C1590.45 597.556 1590.62 593.486 1588.37 591.192C1587.9 585.079 1585.98 579.248 1584.27 573.401C1578.35 552.028 1570.47 531.292 1563.11 510.377C1555.59 491.994 1547.23 473.981 1539.16 455.834C1533.2 443.697 1526.62 431.871 1520.67 419.734C1515.12 407.952 1507.35 397.458 1500.77 386.283C1492.03 371.689 1482.59 357.539 1472.39 343.937C1471.33 347.119 1470.65 350.42 1470.53 353.765C1469.71 363.578 1475.72 372.267 1476.43 381.887C1475.66 386.934 1472.44 391.167 1470.25 395.667C1467.43 396.037 1464.61 396.392 1461.85 396.822C1466.6 408.9 1475.74 418.432 1483.57 428.556C1485.4 431.117 1487.92 433.514 1488.29 436.815C1489.71 447.975 1489.43 459.269 1489.84 470.503C1480.98 469.363 1471.18 463.532 1462.67 468.179C1458.81 488.93 1459.07 510.348 1460.92 531.351C1461.82 538.5 1458.79 545.234 1457.58 552.147C1456.19 561.013 1458.44 569.864 1458.51 578.745C1458.57 584.014 1454.9 588.232 1452.53 592.643C1448.55 598.889 1446.9 606.186 1444.97 613.232C1442.35 620.618 1447.35 627.575 1449.23 634.516C1452.83 646.979 1458.49 658.657 1463.67 670.513C1466.35 676.552 1469.89 682.739 1468.91 689.621C1467.2 714.28 1467.83 738.998 1467.57 763.701C1467.3 775.601 1470.72 787.131 1471.74 798.913C1472.67 809.185 1474.67 819.368 1478.24 829.078C1482.37 840.401 1484.86 852.316 1489.98 863.284C1495.33 874.666 1500.52 886.152 1505.8 897.593C1509.09 905.171 1515.75 910.411 1521.02 916.553C1525.72 921.215 1529.64 926.677 1534.74 930.955C1538.88 932.716 1543.42 933.382 1547.89 933.974C1553.06 936.431 1558.83 936.831 1564.38 937.956C1566.51 935.262 1568.56 932.465 1570.32 929.504C1577.1 917.722 1585.15 906.725 1592.19 895.106C1595.55 888.416 1603.77 887.853 1609.65 884.42C1612.16 883.295 1611.72 880.068 1612.32 877.833C1615.77 850.288 1616.01 822.506 1616.74 794.798C1617.19 784.88 1615.46 775.067 1615.58 765.165ZM777.267 374.19C782.551 381.532 786.607 390.457 794.747 395.134C800.578 398.583 806.248 402.342 812.301 405.421C816.09 393.743 818.577 381.65 822.913 370.165C826.658 363.919 831.453 358.043 837.24 353.558C841.014 362.365 842.317 372.03 846.076 380.807C851.123 387.038 857.458 392.115 862.846 398.08C869.788 406.028 881.022 407.094 889.384 412.955C897.406 418.683 904.94 425.062 912.874 430.909C923.146 438.265 931.672 447.664 941.218 455.894C943.808 458.588 947.686 460.852 948.071 464.937C949.403 475.624 951.579 486.192 952.438 496.952C952.882 500.889 953.282 504.944 954.85 508.645C960.09 513.663 968.053 514.921 973.1 520.19C975.054 525 975.261 530.358 977.303 535.154C980.693 538.884 985.414 541.001 989.588 543.724C998.557 549.023 1006.77 556.009 1016.85 559.162C1032.93 555.773 1048.22 549.304 1063.9 544.464C1067.15 543.398 1070.59 542.599 1073.39 540.482C1064.79 536.841 1055.7 534.458 1047.21 530.58C1043.73 529.129 1042.15 525.489 1040.15 522.587C1037.96 518.916 1035.19 515.527 1033.65 511.516C1033.46 504.071 1034.85 496.67 1035.62 489.285C1037.89 477.266 1036.02 464.981 1037.47 452.874C1038.45 445.266 1037.65 437.555 1038.4 429.932C1043.63 422.398 1052.27 417.691 1057.05 409.891C1057.51 401.588 1057.48 393.195 1056.95 384.892C1051.41 377.18 1043.38 371.556 1037.06 364.466C1027.52 354.001 1015.37 346.631 1004.26 338.075C1000.48 335.292 996.693 332.391 992.223 330.852C980.367 326.841 967.89 324.502 956.552 319.055C949.137 314.748 941.988 310.011 934.735 305.453C930.724 303.1 927.038 299.237 922.05 299.547C912.621 299.503 903.193 299.399 893.779 299.37C888.199 299.251 883.27 302.182 878.134 303.884C873.22 305.853 867.906 307.007 863.392 309.805C857.723 314.615 854.866 322.046 848.872 326.516C843.484 328.366 837.638 328.485 832.013 328.337C830.133 324.622 830.858 319.959 829.053 316.111C821.164 316.481 812.742 314.646 805.356 318.272C798.488 321.365 791.68 324.548 784.723 327.404C785.345 334.375 790.984 341.273 787.594 348.185C784.002 356.784 779.902 365.221 777.267 374.19ZM1112.46 452.637C1116.3 448.493 1120.09 444.274 1123.67 439.864C1127.7 434.876 1132.75 430.362 1134.55 423.982C1137.1 415.456 1139.45 406.872 1141.47 398.213C1135.97 393.995 1130.62 389.525 1124.55 386.179C1118.98 386.505 1113.74 388.769 1108.59 390.693C1102.89 392.558 1100.67 398.656 1096.84 402.697C1093.73 406.368 1087.78 405.302 1084.58 408.618C1085.19 416.092 1086.23 423.552 1087.43 430.953C1089.31 436.385 1092.53 441.432 1096.38 445.71C1101.25 448.966 1106.92 450.816 1112.46 452.637ZM761.326 442.498C765.456 448.848 770.695 454.383 775.121 460.526C777.622 463.93 780.242 467.542 784.298 469.2C793.342 473.344 802.429 477.607 812.169 479.916C818.208 481.766 824.557 482.817 830.33 485.481C833.586 488.678 835.791 492.763 838.456 496.449C840.277 499.424 842.837 502.384 842.719 506.099C842.704 514.462 841.89 522.81 841.89 531.187C834.948 537.789 826.674 542.762 819.511 549.067C826.482 551.258 833.898 551.272 840.928 553.315C852.858 556.69 864.95 559.872 876.051 565.526C883.171 569.774 891.489 566.207 898.815 564.475C900.976 558.288 901.716 551.746 903.477 545.471C906.452 540.083 911.262 535.983 915.052 531.188C910.597 523.299 906.793 514.862 901.154 507.773C890.69 500.757 876.954 498.67 868.621 488.546C865.01 483.38 863.174 477.253 860.51 471.584C858.911 468.372 857.875 464.391 854.501 462.585C838.619 453.586 822.146 445.697 806.071 437.053C799.188 433.19 791.403 431.576 783.839 429.637C781.16 429.148 778.377 428.127 775.684 428.867C770.37 432.818 765.752 437.613 761.326 442.498ZM1057.65 733.105C1041.62 719.68 1025.07 706.848 1009.68 692.683C1008.09 698.855 1005.04 705.634 1007.84 711.91C1010.3 717.564 1012.43 723.588 1016.8 728.117C1021.58 733.194 1025.97 738.641 1030.65 743.836C1032.53 745.701 1034.34 748.365 1037.4 747.995C1046.89 748.099 1056.4 748.232 1065.89 747.625C1064.23 742.267 1062.12 736.746 1057.65 733.105ZM825.8 1129.29C807.313 1122.92 788.397 1117.98 769.274 1113.97C764.345 1114.35 760.127 1117.52 756.012 1119.99C767.32 1121.21 778.391 1123.93 789.655 1125.48C795.472 1126.24 800.919 1128.52 806.04 1131.3C813.455 1135.31 821.611 1137.93 828.567 1142.79C834.384 1146.8 839.979 1151.12 845.781 1155.19C847.75 1156.49 849.866 1158.12 852.427 1157.56C860.287 1156.71 868.013 1154.98 875.887 1154.32C878.018 1151.11 879.765 1147.66 881.185 1144.08C873.326 1140.17 865.451 1136.08 857.074 1133.45C846.641 1132.23 835.791 1133.15 825.8 1129.29ZM922.837 1146.44C913.053 1149.08 902.914 1149.88 893.057 1152.14C892.805 1155.38 892.539 1158.62 892.258 1161.88C899.081 1165.61 906.497 1168.13 914.001 1170.1C927.988 1173.56 942.567 1171.06 956.288 1167.56C951.196 1163.06 944.314 1161.26 939.385 1156.61C938.926 1154.44 939.489 1152.22 939.696 1150.07C934.782 1146.71 928.758 1144.64 922.837 1146.44ZM1375.96 1295.54C1376.24 1297.25 1374.97 1298.72 1374.29 1300.18C1367.47 1311.46 1359.19 1321.75 1351.91 1332.73C1346.94 1340.12 1340.5 1346.69 1337.42 1355.2C1334.19 1363.7 1330.91 1372.18 1327.3 1380.51C1323.15 1389.32 1326.17 1399.34 1323.99 1408.54C1320.96 1412.5 1316.34 1414.76 1312.39 1417.65C1289.89 1434.08 1267.57 1450.77 1244.93 1466.96C1217.35 1482.46 1189.51 1497.5 1161.88 1512.88C1152.26 1518.64 1141.42 1521.79 1131.3 1526.49C1116.45 1533.11 1101.22 1538.79 1086.39 1545.44C1075.22 1550.52 1063.05 1552.62 1051.46 1556.5C1034.44 1561.81 1017.45 1567.24 1000.19 1571.73C985.551 1574.97 970.838 1577.75 956.185 1580.84C943.796 1582.71 931.659 1586.22 919.123 1587.06C917.835 1581.54 913.972 1575.53 917.199 1570.01C919.878 1563.23 924.97 1556.81 924.215 1549.16C923.638 1543.25 923.593 1537.26 922.409 1531.44C915.941 1529.9 908.807 1532.08 902.708 1529.01C893.102 1519.32 885.45 1507.85 875.562 1498.4C864.816 1487.94 854.529 1476.99 843.295 1467.07C830.27 1457.64 815.335 1451.1 802.695 1441.08C798.536 1437.79 794.11 1434.83 790.099 1431.38C786.621 1429.03 788.175 1424.4 787.82 1420.9C788.367 1412.27 786.769 1403.48 788.323 1394.97C791.935 1387.85 795.073 1380.41 799.32 1373.67C807.727 1369.01 817.614 1367.86 826.155 1363.46C829.604 1360.25 830.817 1355.3 833.082 1351.26C837.389 1343.58 835.11 1334.49 836.176 1326.15C837.257 1317.18 834.563 1307.01 840.513 1299.28C837.538 1295.97 832.668 1296.74 828.702 1296.19C820.843 1296 812.998 1293.84 805.168 1295.37C797.027 1296.2 788.517 1298.96 780.539 1295.94C764.036 1289.96 747.266 1284.41 731.355 1277.04C724.28 1264.91 719.603 1251.4 713.09 1238.94C709.538 1234.17 704.416 1230.9 700.213 1226.77C690.341 1217.08 678.337 1209.99 666.703 1202.69C651.976 1195.94 636.805 1190.18 621.959 1183.74C598.381 1175.17 573.796 1169.15 551.15 1158.2C538.998 1148.27 527.808 1137.15 516.012 1126.77C506.48 1116.43 492.079 1113.41 480.563 1106.01C476.226 1101.3 473.37 1095.47 469.462 1090.44C468.322 1088.41 465.998 1086.41 466.783 1083.88C468.456 1077.16 473.251 1070.75 471.149 1063.54C468.87 1055.39 467.404 1046.98 464.518 1039.02C457.177 1023.82 449.169 1008.91 442.02 993.622C435.922 975.298 433.258 956.012 426.76 937.821C425.472 934.002 424.259 930.11 421.861 926.839C417.598 928.023 413.143 928.586 409.073 930.332C407.297 931.945 408.673 934.669 408.718 936.726C411.723 949.81 414.194 963.013 416.533 976.245C417.821 985.274 421.787 993.577 424.57 1002.19C426.761 1009.19 433.362 1013.41 436.559 1019.87C428.581 1018.8 423.712 1012.05 418.546 1006.66C414.787 1002.47 409.991 998.773 408.348 993.149C403.123 977.208 396.329 961.77 392.185 945.489C384.118 915.842 374.424 886.639 366.594 856.933C365.588 842.605 368.577 828.337 369.569 814.069C370.709 804.892 369.909 795.523 372.026 786.465C375.312 771.56 375.667 756.019 380.241 741.41C386.132 728.548 391.12 715.241 397.78 702.735C404.648 691.9 410.035 679.985 418.738 670.409C422.66 665.377 427.411 660.922 430.712 655.415C430.549 646.919 426.893 638.971 426.124 630.564C425.029 617.228 426.139 603.863 427.589 590.601C428.403 584.369 427.663 577.916 429.735 571.892C433.154 561.339 436.011 550.623 439.341 540.055C444.122 524.854 447.097 509.18 450.782 493.698C453.831 482.286 451.596 470.416 450.797 458.856C450.249 450.464 445.543 443.181 443.752 435.1C441.991 431.725 440.733 427.566 436.973 425.894C426.449 420.595 416.592 413.846 405.224 410.368C389.712 405.321 374.482 399.297 360.006 391.778C356.365 388.448 356.01 382.868 354.796 378.324C359.666 380.337 362.996 384.674 367.629 387.027C373.579 388.862 379.84 389.277 385.938 390.52C388.306 385.665 389.816 380.47 391.385 375.334C393.561 368.096 397.231 361.465 400.369 354.627C403.729 345.628 413.394 341.854 420.765 336.762C431.289 336.125 441.398 342.416 451.833 340.936C457.827 333.313 460.714 323.885 464.266 315.019C472.096 312.207 480.784 312.666 488.703 314.989C496.281 317.476 501.417 308.373 508.966 308.891C518.098 309.054 527.852 307.233 536.407 311.407C538.849 312.443 541.262 313.568 543.704 314.649C544.696 318.172 545.48 321.768 545.969 325.409C546.783 329.509 547.878 333.564 548.9 337.62C551.046 345.805 549.611 354.316 550.188 362.649C550.203 366.986 553.459 370.227 555.783 373.572C561.2 380.514 565.108 388.684 571.842 394.531C582.351 403.752 592.682 413.181 603.354 422.195C621.885 436.759 640.609 451.072 659.169 465.577C661.641 467.59 664.32 469.322 667.206 470.713C669.101 463.416 669.796 455.912 671.291 448.541C664.63 442.472 656.564 438.047 650.333 431.52C648.113 425.762 648.616 419.25 646.129 413.596C641.63 408.075 635.694 403.946 630.425 399.209C633.711 395.228 637.589 391.794 641.556 388.508C643.214 386.687 645.819 387.057 648.068 386.835C653.486 386.776 658.888 385.962 664.32 386.065C670.122 392 673.127 400.038 678.425 406.358C683.546 410.976 690.888 412.204 695.95 416.911C698.718 423.172 700.982 429.67 703.202 436.138C705.363 447.357 702.891 458.962 704.83 470.21C707.864 474.058 712.082 476.871 716.39 479.15C721.851 476.397 726.366 471.705 730.229 466.998C732.449 458.68 733.263 450.036 734.862 441.584C738.547 441.288 742.248 441.14 745.963 441.081C747.872 449.607 747.709 458.413 748.982 467.028C750.403 471.187 750.107 476.367 752.83 479.831C759.624 482.555 766.788 484.612 773.937 486.136C780.006 484.582 785.689 481.77 791.684 479.89C796.11 484.419 800.654 488.874 804.309 494.084C799.365 499.812 795.576 506.68 789.419 511.253C781.382 516.981 773.508 522.917 765.781 529.029C757.714 536.74 749.766 544.6 741.699 552.311C735.364 558.098 731.323 565.751 726.75 572.885C723.745 578.184 718.698 582.683 717.869 588.989C716.922 598.077 717.292 607.298 715.53 616.312C714.301 621.196 716.314 625.814 718.919 629.84C722.013 633.525 724.321 637.847 727.607 641.385C734.919 643.886 742.616 645.189 750.165 646.921C760.244 648.357 768.933 653.966 778.317 657.519C779.753 664.194 780.182 671.018 780.493 677.841C780.478 681.63 782.98 684.664 784.904 687.728C789.315 694.078 792.749 701.316 798.862 706.289C803.702 710.241 807.876 715.199 813.604 717.938C814.684 706.704 818.074 695.869 819.14 684.65C820.013 677.412 821.908 670.352 822.455 663.085C823.032 656.114 829.145 651.466 831.306 645.101C829.737 638.278 819.968 635.362 820.412 627.606C819.05 609.104 818.192 590.559 818.858 572.012C824.66 570.68 830.773 565.973 836.693 569.274C848.623 574.795 861.071 579.161 872.882 584.919C879.528 590.07 882.917 598.359 889.178 603.953C900.797 607.401 913.037 608.29 925.086 609.281C929.008 609.459 931.983 612.286 934.958 614.521C941.811 620.057 949.049 625.089 955.961 630.536C962.266 635.568 969.401 639.713 974.581 646.048C979.717 652.25 984.942 658.377 990.255 664.431C996.042 670.485 997.7 678.966 1000.72 686.5C1003.49 692.465 998.574 698.149 996.635 703.61C995.11 708.169 990.004 709.205 986.126 710.952C979.643 713.365 973.412 717.035 966.352 717.391C961.246 718.013 955.784 717.761 951.166 720.396C944.742 723.904 938.348 727.471 931.688 730.52C925.723 733.036 921.949 738.468 917.449 742.835C914.785 745.588 911.795 748.06 909.53 751.168C908.242 754.735 910.196 758.361 911.424 761.662C920.704 758.643 929.704 754.276 936.986 747.675C939.783 745.529 942.226 742.613 945.659 741.532C950.099 742.154 954.495 743.293 958.655 745.01C960.786 750.264 959.972 756.303 961.008 761.869C972.094 767.257 984.187 763.482 995.732 762.357C997.73 766.59 999.551 770.942 1001.33 775.293C993.231 779.837 985.283 784.647 977.216 789.251C971.902 792.315 965.937 794.431 961.32 798.561C957.886 802.025 955.015 805.991 951.64 809.499C947.007 807.427 942.7 804.718 938.052 802.764C930.859 805.206 922.392 807.856 918.751 815.197C914.059 823.338 907.872 830.709 904.719 839.663C903.357 842.712 902.662 846.19 900.427 848.751C896.342 851.104 890.777 851.282 888.053 855.574C883.464 862.294 878.373 868.732 874.421 875.837C870.336 886.168 866.562 896.633 862.698 907.053C860.463 917.444 861.499 928.278 860.212 938.772C851.228 947.608 841.355 955.66 830.965 962.824C824.053 967.664 817.629 973.244 810.214 977.344C808.068 986.906 798.891 993.418 797.648 1003.35C796.656 1010.34 794.732 1017.19 794.347 1024.25C795.723 1030.2 799.261 1035.35 801.777 1040.89C806.203 1049.54 806.336 1059.48 808.615 1068.76C804.293 1070.73 799.69 1071.88 795.087 1072.95C788.56 1063.1 781.203 1053.85 775.046 1043.77C770.842 1038.15 767.675 1031.64 762.598 1026.75C756.663 1023.47 750.017 1021.69 743.963 1018.63C737.11 1014.88 729.088 1015.62 721.613 1014.51C717.883 1014.2 714.124 1013.12 710.394 1013.7C703.2 1015.99 697.458 1021.9 689.717 1022.65C686.002 1023.01 681.902 1024.07 678.498 1022.04C673.451 1019.51 668.788 1015.83 662.986 1015.3C655.763 1014.33 648.377 1012.17 641.11 1014.01C632.185 1016.02 623.097 1017.35 614.305 1019.9C611.36 1020.61 609.865 1023.45 608.118 1025.64C601.428 1035.13 593.983 1044.08 587.648 1053.82C584.584 1060.6 585.605 1068.43 582.897 1075.38C582.734 1086.8 584.007 1098.33 585.102 1109.79C585.413 1112.73 585.901 1116.02 588.477 1117.93C595.434 1123.8 602.686 1129.33 609.613 1135.26C617.709 1142.99 629.106 1145.3 639.467 1148.45C645.743 1147.86 651.87 1145.58 657.702 1143.22C662.009 1138.46 663.637 1131.66 668.551 1127.42C675.241 1124.29 682.331 1121.67 689.569 1120.15C695.327 1122.46 700.3 1126.31 705.51 1129.65C704.948 1138.01 702.964 1146.18 701.854 1154.49C700.892 1162.26 695.045 1168.13 692.899 1175.48C692.322 1180.95 694.394 1186.22 695.83 1191.4C709.077 1193.5 722.946 1189.23 735.778 1194.11C742.735 1196.43 750.431 1197.16 756.604 1201.48C760.733 1204.28 764.685 1207.36 768.978 1209.96C769.111 1215.72 769.348 1221.55 768.268 1227.25C766.448 1235.23 762.495 1242.6 760.956 1250.65C761.829 1255.51 763.383 1260.41 766.033 1264.61C771.45 1269.67 778.081 1273.18 783.868 1277.81C787.346 1280.05 790.336 1283.9 794.777 1284.03C810.585 1285.01 826.363 1286.65 841.801 1290.28C846.818 1286.28 851.037 1281.42 855.581 1276.94C860.939 1272.06 866.874 1267.87 872.38 1263.15C878.226 1257.94 885.968 1255.92 892.821 1252.43C896.196 1250.96 899.807 1248.52 903.641 1249.9C915.245 1253.7 926.672 1258.16 938.32 1261.83C946.919 1259.31 954.202 1252.84 963.408 1252.22C979.467 1250.99 995.63 1252.25 1011.7 1251.2C1023.78 1248.83 1035.62 1245.25 1047.76 1243.15C1057.99 1246.02 1067.34 1251.35 1077.27 1255.11C1084.84 1257.83 1091.9 1262.14 1099.93 1263.41C1111.2 1265.44 1122.45 1267.61 1133.77 1269.29C1152.89 1270.07 1172.11 1268.7 1191.21 1269.6C1198.47 1275.83 1203.71 1284.04 1210.29 1290.96C1214.9 1296.3 1219.78 1301.42 1223.69 1307.33C1229.46 1309.99 1235.77 1307.83 1241.73 1307.16C1251.35 1305.39 1261.17 1304.91 1270.8 1303.24C1284.91 1300.31 1298.86 1296.77 1312.93 1293.65C1324.22 1291.37 1334.49 1285.98 1345 1281.5C1350.55 1279.07 1357.08 1280.95 1361.74 1284.46C1366.55 1288.03 1371.77 1291.18 1375.96 1295.54ZM843.475 1297.04C842.96 1298.24 842.567 1299.53 842.319 1300.92C842.566 1299.53 842.96 1298.24 843.475 1297.04Z" fill="url(#paint0_radial_6_22)"/>
<defs>
<radialGradient id="paint0_radial_6_22" cx="0" cy="0" r="1" gradientUnits="userSpaceOnUse" gradientTransform="translate(769.705 807.244) scale(862.762 862.762)">
<stop stop-color="#67E8F9"/>
<stop offset="1" stop-color="#06B6D4"/>
</radialGradient>
</defs>
</svg>
