<svg width="1621" height="1595" viewBox="0 0 1621 1595" fill="none" xmlns="http://www.w3.org/2000/svg">
<path d="M1448.92 563.883C1445.26 574.525 1443.91 585.907 1440.05 596.475C1434.91 601.655 1429.07 606.762 1422.44 609.811C1415.54 606.584 1409.43 601.951 1402.85 598.177C1399.66 596.061 1395.9 594.447 1393.57 591.339C1392.4 585.522 1394.97 578.284 1390.24 573.696C1385.48 569.078 1380.22 565.022 1375.37 560.523C1375.37 553.433 1374.7 546.299 1375.59 539.254C1379.41 533.333 1385.69 529.515 1389.61 523.683C1390.41 515.054 1388.69 506.321 1387.99 497.692C1379.96 495.901 1372.01 493.799 1364.09 491.623C1357.96 489.936 1351.54 490.498 1345.28 490.38C1342.38 485.777 1338.84 481.351 1337.33 476.052C1336.37 463.59 1339.24 451.112 1338.54 438.694C1333.54 427.786 1326.78 417.706 1321.82 406.738C1318.1 396.866 1307.21 393.698 1299.7 387.467C1295.96 385.025 1295.96 380.125 1294.69 376.277C1290.41 361.964 1288.71 347.089 1286.74 332.347C1285.94 324.783 1280.11 319.352 1276.39 313.12C1271.37 304.92 1265.1 297.52 1260.47 289.112C1257.31 279.95 1256.47 270.107 1253.13 260.975C1247.59 256.89 1240.25 256.209 1234.12 253.145C1221.11 246.943 1208.72 239.469 1196.58 231.727C1193.4 235.043 1190.35 238.462 1187.1 241.688C1189.85 246.395 1194.28 249.784 1197.35 254.269C1191.83 259.849 1184.71 263.49 1179.31 269.174C1185.19 271.942 1191.7 272.741 1197.75 275.02C1211.21 282.687 1222.41 293.507 1233.14 304.549C1240.2 312.408 1251.16 314.481 1259.12 321.141C1252.95 325.848 1245.04 327.21 1238.54 331.324C1234.28 335.483 1234.12 342.499 1229.62 346.392C1224.14 346.037 1218.76 344.867 1213.43 343.654C1206.34 342.174 1200.3 337.985 1193.88 334.907C1189.2 332.42 1183.72 330.467 1180.92 325.656C1177.45 320.194 1174.29 314.525 1170.89 309.019C1167.37 303.335 1164.48 296.956 1159.12 292.708C1154.47 289.008 1150.09 284.923 1144.94 281.918C1125.94 272.208 1106.77 262.795 1087.79 252.996C1082.18 250.421 1078.82 245.063 1075.57 240.104C1072.36 235.116 1068.35 230.69 1065.59 225.436C1074.07 220.714 1081.93 214.009 1091.84 212.544C1102.67 210.783 1113.56 209.081 1124.27 206.55L1124.99 205.469C1124.34 199.371 1122.79 193.317 1120.54 187.604C1117.07 185.31 1112.93 184.392 1109.14 182.838C1107.01 182.719 1104.88 182.542 1102.79 182.349C1100.63 185.176 1099.62 189.276 1096.5 191.097C1089.08 191.911 1081.58 191.511 1074.15 191.186C1075.26 185.739 1077.02 180.44 1077.73 174.905C1072.25 172.137 1066.33 170.317 1060.94 167.401C1054.67 161.777 1052.03 152.688 1044.26 148.603C1019.55 133.669 995.953 117.032 972.078 100.825C968.54 97.672 964.263 100.707 960.962 102.557C954.849 105.71 952.836 113.554 946.309 116.056C940.862 118.143 935.326 120.304 929.539 121.088C924.388 119.711 919.992 116.337 914.723 115.316C909.261 114.206 903.785 113.259 898.308 112.326C889.931 110.861 881.494 112.578 873.101 112.755C868.498 113.036 863.584 112.637 859.41 114.975C853.149 118.054 847.895 123.649 840.583 124.152C830.163 125.44 819.891 128.8 809.293 127.926C802.174 127.349 795.173 125.957 788.142 124.892C779.912 123.589 772.393 119.874 764.49 117.447C763.084 112.03 762.166 106.494 760.405 101.166C749.644 101.24 738.884 99.197 728.153 100.293C722.484 102.543 719.642 108.981 714.092 111.453C702.236 113.022 690.099 111.971 678.377 114.517C669.452 116.352 660.66 118.75 651.749 120.571C650.965 126.477 652.741 132.96 650.698 138.51C644.363 143.276 637.303 148.19 629.073 148.471C622.102 149.004 615.13 149.581 608.218 150.617C600.965 151.372 596.096 157.426 590.753 161.703C591.908 166.987 593.225 172.227 594.557 177.466C588.977 181.181 583.19 185.266 576.277 185.784C564.984 186.85 553.75 188.448 542.589 190.446C540.487 197.343 538.993 204.433 538.608 211.656C538.046 215.371 538.519 219.427 536.847 222.89C532.496 226.62 527.019 228.81 522.978 232.925C508.384 247.43 495.285 263.505 479.137 276.367C474.637 279.875 470.463 284.315 464.721 285.647C459.333 287.038 453.827 287.793 448.336 288.444C452.421 279.386 459.615 272.133 463.788 263.149C463.625 258.59 461.864 254.283 460.103 250.139C453.28 250.242 446.456 250.539 439.633 250.272C433.446 242.353 428.162 233.798 422.671 225.391C421.561 223.496 419.548 220.906 421.561 218.878C429.435 209.494 437.872 200.569 447.715 193.198C452.318 188.876 459.082 189.823 464.722 188.062C467.297 186.034 468.393 182.704 470.006 179.951C472.626 174.371 476.223 169.279 478.62 163.596C479.612 154.7 474.846 145.982 475.971 137.102C485.133 132.247 495.005 128.828 504.123 123.811C509.393 120.762 515.772 119.178 520.168 114.856C520.849 104.762 521.959 94.563 521.234 84.454C514.869 77.32 507.543 70.097 497.907 67.788C504.79 63.999 512.545 62.37 519.813 59.47C545.715 49.598 571.958 40.554 598.807 33.553C613.978 29.808 628.824 24.746 644.35 22.511C669.039 16.99 694.023 13.038 719.215 10.626C736.532 9.17502 753.628 5.38602 771.034 5.29802C788.81 5.26902 806.631 5.74202 824.318 3.74402C846.475 6.24502 868.87 5.50502 891.012 8.22902C902.971 8.93902 914.886 10.405 926.609 12.936C945.999 16.089 965.447 19.005 984.748 22.705C995.064 23.919 1005.19 26.346 1015.05 29.617C1031.83 34.264 1048.44 39.519 1065.04 44.744C1075.97 48.252 1087.25 50.605 1097.96 54.75C1120.02 64.341 1142.22 73.636 1164.15 83.509C1191.62 98.991 1220.81 111.557 1246.77 129.6C1259.28 137.815 1271.79 146.044 1284.3 154.274C1297.34 163.85 1310.12 173.782 1323.13 183.417C1332.04 189.678 1340.41 196.679 1348.12 204.39C1356.21 212.575 1365.08 219.961 1373.25 228.087C1386.19 239.825 1397.61 253.042 1409.85 265.475C1413.26 268.376 1413.61 272.994 1414.94 276.975C1418.05 285.93 1422.57 294.381 1425.39 303.44C1425.99 314.052 1422.83 324.917 1425.94 335.351C1427.67 340.946 1429.01 346.718 1431.42 352.062C1437.53 357.716 1445.52 360.795 1452.26 365.635C1452.54 370.934 1452.24 376.233 1451.53 381.487C1447.23 383.026 1443.04 384.832 1438.73 386.312C1432.5 388.458 1425.75 386.075 1419.46 387.703C1413.66 389.672 1408.3 392.706 1402.93 395.577C1406.63 399.677 1412.22 400.935 1417.03 403.259C1423.81 406.471 1431.08 408.691 1437.43 412.776C1436.24 416.595 1435.01 420.399 1433.7 424.173C1423.06 424.543 1412.4 424.143 1401.82 425.224C1403.67 434.223 1404.61 443.518 1408.21 452.044C1410.96 458.956 1414.28 465.942 1413.88 473.58C1414.49 480.862 1412 489.106 1416.51 495.53C1424.05 507.593 1431.48 519.73 1437.32 532.725C1440.45 540.718 1449.45 543.722 1453.87 550.635C1454.73 555.683 1450.54 559.472 1448.92 563.883ZM1320.77 434.653C1321.05 429.621 1320.83 422.96 1315.69 420.4C1310.73 417.158 1305.39 414.583 1299.97 412.289C1284.4 405.688 1268.67 399.456 1253.35 392.322C1244.82 388.651 1240.4 379.711 1232.77 374.886C1228.66 375.611 1225 377.787 1221.24 379.445C1224.93 392.751 1234.89 402.772 1241.25 414.687C1245.56 426.247 1248.31 438.354 1251.82 450.18C1253.24 454.709 1257.68 457.166 1261.01 460.186C1265.76 463.724 1269.82 468.223 1274.97 471.213C1278.6 471.983 1282.36 471.701 1286.07 471.775C1283.67 459.579 1272.11 453.466 1264 445.369C1260.21 442.039 1261.27 436.429 1260.82 431.944C1281.35 436.488 1297.99 451.437 1318.89 454.856C1318.9 448.063 1319.33 441.284 1320.77 434.653ZM1615.58 765.165C1615.96 746.412 1613.9 727.718 1611.2 709.187C1610.03 691.781 1607.29 674.582 1603.91 657.486C1600.18 638.437 1597.46 619.121 1591.65 600.561C1590.45 597.556 1590.62 593.486 1588.37 591.192C1587.9 585.079 1585.98 579.248 1584.27 573.401C1578.35 552.028 1570.46 531.292 1563.11 510.377C1555.59 491.994 1547.23 473.981 1539.16 455.834C1533.19 443.697 1526.62 431.871 1520.67 419.734C1515.12 407.952 1507.35 397.458 1500.77 386.283C1492.03 371.689 1482.59 357.539 1472.39 343.937C1471.32 347.119 1470.65 350.42 1470.53 353.765C1469.71 363.578 1475.72 372.267 1476.43 381.887C1475.66 386.934 1472.44 391.167 1470.24 395.667C1467.43 396.037 1464.61 396.392 1461.85 396.822C1466.6 408.9 1475.74 418.432 1483.57 428.556C1485.4 431.117 1487.92 433.514 1488.29 436.815C1489.71 447.975 1489.43 459.269 1489.84 470.503C1480.98 469.363 1471.18 463.532 1462.67 468.179C1458.8 488.93 1459.07 510.348 1460.92 531.351C1461.82 538.5 1458.79 545.234 1457.58 552.147C1456.18 561.013 1458.43 569.864 1458.51 578.745C1458.57 584.014 1454.9 588.232 1452.53 592.643C1448.55 598.889 1446.9 606.186 1444.96 613.232C1442.34 620.618 1447.35 627.575 1449.23 634.516C1452.82 646.979 1458.49 658.657 1463.67 670.513C1466.35 676.552 1469.89 682.739 1468.91 689.621C1467.2 714.28 1467.83 738.998 1467.57 763.701C1467.3 775.601 1470.72 787.131 1471.74 798.913C1472.67 809.185 1474.67 819.368 1478.24 829.078C1482.37 840.401 1484.85 852.316 1489.98 863.284C1495.33 874.666 1500.51 886.152 1505.8 897.593C1509.08 905.171 1515.75 910.411 1521.02 916.553C1525.72 921.215 1529.64 926.677 1534.74 930.955C1538.88 932.716 1543.42 933.382 1547.89 933.974C1553.06 936.431 1558.83 936.831 1564.38 937.956C1566.51 935.262 1568.56 932.465 1570.32 929.504C1577.1 917.722 1585.15 906.725 1592.19 895.106C1595.55 888.416 1603.77 887.853 1609.65 884.42C1612.16 883.295 1611.72 880.068 1612.32 877.833C1615.77 850.288 1616.01 822.506 1616.73 794.798C1617.19 784.88 1615.46 775.067 1615.58 765.165ZM777.266 374.19C782.55 381.532 786.606 390.457 794.746 395.134C800.577 398.583 806.247 402.342 812.3 405.421C816.089 393.743 818.576 381.65 822.912 370.165C826.657 363.919 831.452 358.043 837.239 353.558C841.013 362.365 842.316 372.03 846.075 380.807C851.122 387.038 857.457 392.115 862.845 398.08C869.787 406.028 881.021 407.094 889.383 412.955C897.405 418.683 904.939 425.062 912.873 430.909C923.145 438.265 931.671 447.664 941.217 455.894C943.807 458.588 947.685 460.852 948.07 464.937C949.402 475.624 951.578 486.192 952.437 496.952C952.881 500.889 953.281 504.944 954.849 508.645C960.089 513.663 968.052 514.921 973.099 520.19C975.053 525 975.26 530.358 977.302 535.154C980.692 538.884 985.413 541.001 989.587 543.724C998.556 549.023 1006.77 556.009 1016.85 559.162C1032.92 555.773 1048.21 549.304 1063.9 544.464C1067.15 543.398 1070.59 542.599 1073.39 540.482C1064.79 536.841 1055.7 534.458 1047.21 530.58C1043.73 529.129 1042.15 525.489 1040.15 522.587C1037.96 518.916 1035.19 515.527 1033.65 511.516C1033.46 504.071 1034.85 496.67 1035.62 489.285C1037.88 477.266 1036.02 464.981 1037.47 452.874C1038.45 445.266 1037.65 437.555 1038.4 429.932C1043.63 422.398 1052.27 417.691 1057.05 409.891C1057.51 401.588 1057.48 393.195 1056.95 384.892C1051.41 377.18 1043.37 371.556 1037.05 364.466C1027.52 354.001 1015.37 346.631 1004.26 338.075C1000.48 335.292 996.692 332.391 992.222 330.852C980.366 326.841 967.889 324.502 956.551 319.055C949.136 314.748 941.987 310.011 934.734 305.453C930.723 303.1 927.037 299.237 922.049 299.547C912.62 299.503 903.192 299.399 893.778 299.37C888.198 299.251 883.269 302.182 878.133 303.884C873.219 305.853 867.905 307.007 863.391 309.805C857.722 314.615 854.865 322.046 848.871 326.516C843.483 328.366 837.637 328.485 832.012 328.337C830.132 324.622 830.857 319.959 829.052 316.111C821.163 316.481 812.741 314.646 805.355 318.272C798.487 321.365 791.679 324.548 784.722 327.404C785.344 334.375 790.983 341.273 787.593 348.185C784.001 356.784 779.901 365.221 777.266 374.19ZM1112.45 452.637C1116.3 448.493 1120.09 444.274 1123.67 439.864C1127.7 434.876 1132.75 430.362 1134.55 423.982C1137.1 415.456 1139.45 406.872 1141.46 398.213C1135.97 393.995 1130.62 389.525 1124.55 386.179C1118.98 386.505 1113.74 388.769 1108.59 390.693C1102.89 392.558 1100.67 398.656 1096.84 402.697C1093.73 406.368 1087.78 405.302 1084.58 408.618C1085.19 416.092 1086.23 423.552 1087.43 430.953C1089.31 436.385 1092.53 441.432 1096.38 445.71C1101.25 448.966 1106.92 450.816 1112.45 452.637ZM761.325 442.498C765.455 448.848 770.694 454.383 775.12 460.526C777.621 463.93 780.241 467.542 784.297 469.2C793.341 473.344 802.428 477.607 812.168 479.916C818.207 481.766 824.556 482.817 830.329 485.481C833.585 488.678 835.79 492.763 838.455 496.449C840.276 499.424 842.836 502.384 842.718 506.099C842.703 514.462 841.889 522.81 841.889 531.187C834.947 537.789 826.673 542.762 819.51 549.067C826.481 551.258 833.897 551.272 840.927 553.315C852.857 556.69 864.949 559.872 876.05 565.526C883.17 569.774 891.488 566.207 898.814 564.475C900.975 558.288 901.715 551.746 903.476 545.471C906.451 540.083 911.261 535.983 915.051 531.188C910.596 523.299 906.792 514.862 901.153 507.773C890.689 500.757 876.953 498.67 868.62 488.546C865.009 483.38 863.173 477.253 860.509 471.584C858.91 468.372 857.874 464.391 854.5 462.585C838.618 453.586 822.145 445.697 806.07 437.053C799.187 433.19 791.402 431.576 783.838 429.637C781.159 429.148 778.376 428.127 775.683 428.867C770.369 432.818 765.751 437.613 761.325 442.498ZM1057.65 733.105C1041.62 719.68 1025.07 706.848 1009.67 692.683C1008.09 698.855 1005.04 705.634 1007.84 711.91C1010.3 717.564 1012.43 723.588 1016.79 728.117C1021.58 733.194 1025.97 738.641 1030.65 743.836C1032.53 745.701 1034.33 748.365 1037.4 747.995C1046.89 748.099 1056.4 748.232 1065.89 747.625C1064.23 742.267 1062.12 736.746 1057.65 733.105ZM825.799 1129.29C807.312 1122.92 788.396 1117.98 769.273 1113.97C764.344 1114.35 760.126 1117.52 756.011 1119.99C767.319 1121.21 778.39 1123.93 789.654 1125.48C795.471 1126.24 800.918 1128.52 806.039 1131.3C813.454 1135.31 821.61 1137.93 828.566 1142.79C834.383 1146.8 839.978 1151.12 845.78 1155.19C847.749 1156.49 849.865 1158.12 852.426 1157.56C860.286 1156.71 868.012 1154.98 875.886 1154.32C878.017 1151.11 879.764 1147.66 881.184 1144.08C873.325 1140.17 865.45 1136.08 857.073 1133.45C846.64 1132.23 835.79 1133.15 825.799 1129.29ZM922.836 1146.44C913.052 1149.08 902.913 1149.88 893.056 1152.14C892.804 1155.38 892.538 1158.62 892.257 1161.88C899.08 1165.61 906.496 1168.13 914 1170.1C927.987 1173.56 942.566 1171.06 956.287 1167.56C951.195 1163.06 944.313 1161.26 939.384 1156.61C938.925 1154.44 939.488 1152.22 939.695 1150.07C934.781 1146.71 928.757 1144.64 922.836 1146.44ZM1375.96 1295.54C1376.24 1297.25 1374.97 1298.72 1374.29 1300.18C1367.46 1311.46 1359.19 1321.75 1351.91 1332.73C1346.94 1340.12 1340.5 1346.69 1337.42 1355.2C1334.19 1363.7 1330.91 1372.18 1327.29 1380.51C1323.15 1389.32 1326.17 1399.34 1323.99 1408.54C1320.96 1412.5 1316.34 1414.76 1312.39 1417.65C1289.89 1434.08 1267.57 1450.77 1244.93 1466.96C1217.35 1482.46 1189.51 1497.5 1161.88 1512.88C1152.25 1518.64 1141.42 1521.79 1131.3 1526.49C1116.45 1533.11 1101.22 1538.79 1086.39 1545.44C1075.22 1550.52 1063.05 1552.62 1051.46 1556.5C1034.44 1561.81 1017.45 1567.24 1000.19 1571.73C985.55 1574.97 970.837 1577.75 956.184 1580.84C943.795 1582.71 931.658 1586.22 919.122 1587.06C917.834 1581.54 913.971 1575.53 917.198 1570.01C919.877 1563.23 924.969 1556.81 924.214 1549.16C923.637 1543.25 923.592 1537.26 922.408 1531.44C915.94 1529.9 908.806 1532.08 902.707 1529.01C893.101 1519.32 885.449 1507.85 875.561 1498.4C864.815 1487.94 854.528 1476.99 843.294 1467.07C830.269 1457.64 815.334 1451.1 802.694 1441.08C798.535 1437.79 794.109 1434.83 790.098 1431.38C786.62 1429.03 788.174 1424.4 787.819 1420.9C788.366 1412.27 786.768 1403.48 788.322 1394.97C791.934 1387.85 795.072 1380.41 799.319 1373.67C807.726 1369.01 817.613 1367.86 826.154 1363.46C829.603 1360.25 830.816 1355.3 833.081 1351.26C837.388 1343.58 835.109 1334.49 836.175 1326.15C837.256 1317.18 834.562 1307.01 840.512 1299.28C837.537 1295.97 832.667 1296.74 828.701 1296.19C820.842 1296 812.997 1293.84 805.167 1295.37C797.026 1296.2 788.516 1298.96 780.538 1295.94C764.035 1289.96 747.265 1284.41 731.354 1277.04C724.279 1264.91 719.602 1251.4 713.089 1238.94C709.537 1234.17 704.415 1230.9 700.212 1226.77C690.34 1217.08 678.336 1209.99 666.702 1202.69C651.975 1195.94 636.804 1190.18 621.958 1183.74C598.38 1175.17 573.795 1169.15 551.149 1158.2C538.997 1148.27 527.807 1137.15 516.011 1126.77C506.479 1116.43 492.078 1113.41 480.562 1106.01C476.225 1101.3 473.369 1095.47 469.461 1090.44C468.321 1088.41 465.997 1086.41 466.782 1083.88C468.455 1077.16 473.25 1070.75 471.148 1063.54C468.869 1055.39 467.403 1046.98 464.517 1039.02C457.176 1023.82 449.168 1008.91 442.019 993.622C435.921 975.298 433.257 956.012 426.759 937.821C425.471 934.002 424.258 930.11 421.86 926.839C417.597 928.023 413.142 928.586 409.072 930.332C407.296 931.945 408.672 934.669 408.717 936.726C411.722 949.81 414.193 963.013 416.532 976.245C417.82 985.274 421.786 993.577 424.569 1002.19C426.76 1009.19 433.361 1013.41 436.558 1019.87C428.58 1018.8 423.711 1012.05 418.545 1006.66C414.786 1002.47 409.99 998.773 408.347 993.149C403.122 977.208 396.328 961.77 392.184 945.489C384.117 915.842 374.423 886.639 366.593 856.933C365.587 842.605 368.576 828.337 369.568 814.069C370.708 804.892 369.908 795.523 372.025 786.465C375.311 771.56 375.666 756.019 380.24 741.41C386.131 728.548 391.119 715.241 397.779 702.735C404.647 691.9 410.034 679.985 418.737 670.409C422.659 665.377 427.41 660.922 430.711 655.415C430.548 646.919 426.892 638.971 426.123 630.564C425.028 617.228 426.138 603.863 427.588 590.601C428.402 584.369 427.662 577.916 429.734 571.892C433.153 561.339 436.01 550.623 439.34 540.055C444.121 524.854 447.096 509.18 450.781 493.698C453.83 482.286 451.595 470.416 450.796 458.856C450.248 450.464 445.542 443.181 443.751 435.1C441.99 431.725 440.732 427.566 436.972 425.894C426.448 420.595 416.591 413.846 405.223 410.368C389.711 405.321 374.481 399.297 360.005 391.778C356.364 388.448 356.009 382.868 354.795 378.324C359.665 380.337 362.995 384.674 367.628 387.027C373.578 388.862 379.839 389.277 385.937 390.52C388.305 385.665 389.815 380.47 391.384 375.334C393.56 368.096 397.23 361.465 400.368 354.627C403.728 345.628 413.393 341.854 420.764 336.762C431.288 336.125 441.397 342.416 451.832 340.936C457.826 333.313 460.713 323.885 464.265 315.019C472.095 312.207 480.783 312.666 488.702 314.989C496.28 317.476 501.416 308.373 508.965 308.891C518.097 309.054 527.851 307.233 536.406 311.407C538.848 312.443 541.261 313.568 543.703 314.649C544.695 318.172 545.479 321.768 545.968 325.409C546.782 329.509 547.877 333.564 548.899 337.62C551.045 345.805 549.61 354.316 550.187 362.649C550.202 366.986 553.458 370.227 555.782 373.572C561.199 380.514 565.107 388.684 571.841 394.531C582.35 403.752 592.681 413.181 603.353 422.195C621.884 436.759 640.608 451.072 659.168 465.577C661.64 467.59 664.319 469.322 667.205 470.713C669.1 463.416 669.795 455.912 671.29 448.541C664.629 442.472 656.563 438.047 650.332 431.52C648.112 425.762 648.615 419.25 646.128 413.596C641.629 408.075 635.693 403.946 630.424 399.209C633.71 395.228 637.588 391.794 641.555 388.508C643.213 386.687 645.818 387.057 648.067 386.835C653.485 386.776 658.887 385.962 664.319 386.065C670.121 392 673.126 400.038 678.424 406.358C683.545 410.976 690.887 412.204 695.949 416.911C698.717 423.172 700.981 429.67 703.201 436.138C705.362 447.357 702.89 458.962 704.829 470.21C707.863 474.058 712.081 476.871 716.389 479.15C721.85 476.397 726.365 471.705 730.228 466.998C732.448 458.68 733.262 450.036 734.861 441.584C738.546 441.288 742.247 441.14 745.962 441.081C747.871 449.607 747.708 458.413 748.981 467.028C750.402 471.187 750.106 476.367 752.829 479.831C759.623 482.555 766.787 484.612 773.936 486.136C780.005 484.582 785.688 481.77 791.683 479.89C796.109 484.419 800.653 488.874 804.308 494.084C799.364 499.812 795.575 506.68 789.418 511.253C781.381 516.981 773.507 522.917 765.78 529.029C757.713 536.74 749.765 544.6 741.698 552.311C735.363 558.098 731.322 565.751 726.749 572.885C723.744 578.184 718.697 582.683 717.868 588.989C716.921 598.077 717.291 607.298 715.529 616.312C714.3 621.196 716.313 625.814 718.918 629.84C722.012 633.525 724.32 637.847 727.606 641.385C734.918 643.886 742.615 645.189 750.164 646.921C760.243 648.357 768.932 653.966 778.316 657.519C779.752 664.194 780.181 671.018 780.492 677.841C780.477 681.63 782.979 684.664 784.903 687.728C789.314 694.078 792.748 701.316 798.861 706.289C803.701 710.241 807.875 715.199 813.603 717.938C814.683 706.704 818.073 695.869 819.139 684.65C820.012 677.412 821.907 670.352 822.454 663.085C823.031 656.114 829.144 651.466 831.305 645.101C829.736 638.278 819.967 635.362 820.411 627.606C819.049 609.104 818.191 590.559 818.857 572.012C824.659 570.68 830.772 565.973 836.692 569.274C848.622 574.795 861.07 579.161 872.881 584.919C879.527 590.07 882.916 598.359 889.177 603.953C900.796 607.401 913.036 608.29 925.085 609.281C929.007 609.459 931.982 612.286 934.957 614.521C941.81 620.057 949.048 625.089 955.96 630.536C962.265 635.568 969.4 639.713 974.58 646.048C979.716 652.25 984.941 658.377 990.254 664.431C996.041 670.485 997.699 678.966 1000.72 686.5C1003.49 692.465 998.573 698.149 996.634 703.61C995.109 708.169 990.003 709.205 986.125 710.952C979.642 713.365 973.411 717.035 966.351 717.391C961.245 718.013 955.783 717.761 951.165 720.396C944.741 723.904 938.347 727.471 931.687 730.52C925.722 733.036 921.948 738.468 917.448 742.835C914.784 745.588 911.794 748.06 909.529 751.168C908.241 754.735 910.195 758.361 911.423 761.662C920.703 758.643 929.703 754.276 936.985 747.675C939.782 745.529 942.225 742.613 945.658 741.532C950.098 742.154 954.494 743.293 958.654 745.01C960.785 750.264 959.971 756.303 961.007 761.869C972.093 767.257 984.186 763.482 995.731 762.357C997.729 766.59 999.55 770.942 1001.33 775.293C993.23 779.837 985.282 784.647 977.215 789.251C971.901 792.315 965.936 794.431 961.319 798.561C957.885 802.025 955.014 805.991 951.639 809.499C947.006 807.427 942.699 804.718 938.051 802.764C930.858 805.206 922.391 807.856 918.75 815.197C914.058 823.338 907.871 830.709 904.718 839.663C903.356 842.712 902.661 846.19 900.426 848.751C896.341 851.104 890.776 851.282 888.052 855.574C883.463 862.294 878.372 868.732 874.42 875.837C870.335 886.168 866.561 896.633 862.697 907.053C860.462 917.444 861.498 928.278 860.211 938.772C851.227 947.608 841.354 955.66 830.964 962.824C824.052 967.664 817.628 973.244 810.213 977.344C808.067 986.906 798.89 993.418 797.647 1003.35C796.655 1010.34 794.731 1017.19 794.346 1024.25C795.722 1030.2 799.26 1035.35 801.776 1040.89C806.202 1049.54 806.335 1059.48 808.614 1068.76C804.292 1070.73 799.689 1071.88 795.086 1072.95C788.559 1063.1 781.202 1053.85 775.045 1043.77C770.841 1038.15 767.674 1031.64 762.597 1026.75C756.662 1023.47 750.016 1021.69 743.962 1018.63C737.109 1014.88 729.087 1015.62 721.612 1014.51C717.882 1014.2 714.123 1013.12 710.393 1013.7C703.199 1015.99 697.457 1021.9 689.716 1022.65C686.001 1023.01 681.901 1024.07 678.497 1022.04C673.45 1019.51 668.787 1015.83 662.985 1015.3C655.762 1014.33 648.376 1012.17 641.109 1014.01C632.184 1016.02 623.096 1017.35 614.304 1019.9C611.359 1020.61 609.864 1023.45 608.117 1025.64C601.427 1035.13 593.982 1044.08 587.647 1053.82C584.583 1060.6 585.604 1068.43 582.896 1075.38C582.733 1086.8 584.006 1098.33 585.101 1109.79C585.412 1112.73 585.9 1116.02 588.476 1117.93C595.433 1123.8 602.685 1129.33 609.612 1135.26C617.708 1142.99 629.105 1145.3 639.466 1148.45C645.742 1147.86 651.869 1145.58 657.701 1143.22C662.008 1138.46 663.636 1131.66 668.55 1127.42C675.24 1124.29 682.33 1121.67 689.568 1120.15C695.326 1122.46 700.299 1126.31 705.509 1129.65C704.947 1138.01 702.963 1146.18 701.853 1154.49C700.891 1162.26 695.044 1168.13 692.898 1175.48C692.321 1180.95 694.393 1186.22 695.829 1191.4C709.076 1193.5 722.945 1189.23 735.777 1194.11C742.734 1196.43 750.43 1197.16 756.603 1201.48C760.732 1204.28 764.684 1207.36 768.977 1209.96C769.11 1215.72 769.347 1221.55 768.267 1227.25C766.447 1235.23 762.494 1242.6 760.955 1250.65C761.828 1255.51 763.382 1260.41 766.032 1264.61C771.449 1269.67 778.08 1273.18 783.867 1277.81C787.345 1280.05 790.335 1283.9 794.776 1284.03C810.584 1285.01 826.362 1286.65 841.8 1290.28C846.817 1286.28 851.036 1281.42 855.58 1276.94C860.938 1272.06 866.873 1267.87 872.379 1263.15C878.225 1257.94 885.967 1255.92 892.82 1252.43C896.195 1250.96 899.806 1248.52 903.64 1249.9C915.244 1253.7 926.671 1258.16 938.319 1261.83C946.918 1259.31 954.201 1252.84 963.407 1252.22C979.466 1250.99 995.629 1252.25 1011.7 1251.2C1023.78 1248.83 1035.62 1245.25 1047.76 1243.15C1057.99 1246.02 1067.34 1251.35 1077.27 1255.11C1084.84 1257.83 1091.9 1262.14 1099.93 1263.41C1111.2 1265.44 1122.45 1267.61 1133.77 1269.29C1152.89 1270.07 1172.1 1268.7 1191.21 1269.6C1198.47 1275.83 1203.71 1284.04 1210.29 1290.96C1214.9 1296.3 1219.78 1301.42 1223.69 1307.33C1229.46 1309.99 1235.77 1307.83 1241.73 1307.16C1251.35 1305.39 1261.16 1304.91 1270.8 1303.24C1284.91 1300.31 1298.86 1296.77 1312.92 1293.65C1324.22 1291.37 1334.49 1285.98 1345 1281.5C1350.55 1279.07 1357.08 1280.95 1361.74 1284.46C1366.55 1288.03 1371.77 1291.18 1375.96 1295.54ZM843.474 1297.04C842.959 1298.24 842.566 1299.53 842.318 1300.92C842.565 1299.53 842.959 1298.24 843.474 1297.04Z" fill="url(#paint0_radial_6_30)"/>
<defs>
<radialGradient id="paint0_radial_6_30" cx="0" cy="0" r="1" gradientUnits="userSpaceOnUse" gradientTransform="translate(769.704 807.244) scale(862.762 862.762)">
<stop stop-color="#F0ABFC"/>
<stop offset="1" stop-color="#C026D3"/>
</radialGradient>
</defs>
</svg>
